<svg xmlns="http://www.w3.org/2000/svg" viewBox="0 0 648.1 228.7"><title>Sawday&apos;s Logo</title><path fill="#FFFFFF" d="M61.4 34.4c11.6-5.9 28.3-7.9 33.6-3 .3.2 15.2-6.3 12.3-19.3C106 6.4 98-1.6 77.8.3 40.9 3.8.7 37.7.7 80.7c0 24.6 23 40.4 43.3 54.4 16.4 11.3 31.8 21.9 31.8 35.1 0 6.9-3.2 12.2-9.6 15.6-16.8 9-51.8 2.8-64.9-5.8-.3-.2-.7-.2-1 0-.3.2-.4.6-.3 1 2.4 6.9 8 13.6 15.4 18.4 9.2 6 21 9.2 34.1 9.2 30.7 0 50.6-15.5 50.6-39.4 0-25.2-18.8-39.1-37-52.5-15.6-11.5-30.4-22.4-30.4-39.4.1-16.6 9.3-33 28.7-42.9zm249.2 17.4c-1.1-9.1-5.5-14.4-13.3-15.7-.2 0-.5 0-.7.2-.2.2-.3.4-.3.6-.7 28.4-17.5 102.2-26.9 103.3-.2 0-.4 0-.7-.2-2.9-2.4-3.7-17.8-4.4-32.7-.6-12-1.3-24.4-2.9-34.4-.9-5.4-3.1-9.2-6.4-11.5-4.1-2.7-10-3.1-18-1.2-.4.1-.7.5-.7.9 2.1 16.5-4.2 53.4-10.7 61.6-.7.9-1.4 1.4-2 1.5-.5.1-1-.1-1.4-.5-3.6-3-4.6-17.9-5.7-32.4-.5-6.6-.9-13.5-1.7-19.7-.6-5-2.2-11.4-6.7-13.7-3-1.5-6.7-1-11.1 1.5-.2.1-.4.3-.4.6-.1.2 0 .5.1.7 1.8 2.6 1.8 13.1 1.8 25.4 0 23 0 54.4 11.5 64.7 3.1 2.7 6.8 3.9 11.1 3.4 7.3-.8 15.6-12.2 20.9-39.8 1.3 19.9 5 37.6 13.9 46.3 4.1 4 9 5.8 14.8 5.5 4.8-.3 9.6-3.2 14.1-8.6 17.8-21.1 29.2-76.7 25.8-105.8zM196.4 154.7c-2.7 0-5.2-1.2-7.2-3.4-7.2-7.6-9.5-27-9.2-43.9 1.5-23.8.4-33.7-4.5-37.8-3.6-3.1-8.9-2.5-17.4-.5-.4.1-.7.5-.7 1 .3 2.4.4 4.8.3 7.3-2.3-1.9-5-3.2-7.6-3.4h-.1c-6.9-.4-14.2 2.7-21 8.9-13.2 12-21.9 33-22.6 54.9-.5 15 4.9 30.5 16.9 31.2s26.4-12.2 34.8-38.4c5.3 29 16.4 34 23.7 34.1 7.9.1 14.9-5.4 15.3-9 0-.2 0-.5-.2-.7 0-.2-.2-.3-.5-.3zm-68.4-5.1c-4.3-12.4 12.1-66.3 29.3-61-1.4 15.1-24.5 74.7-29.3 61zm274.7 18.5c-6.9-2.5-10.3-8.4-12.8-17.4-2-10.6-3.7-28.3 4.2-66.9 5.8-28.7 19.8-62.1 9.5-72.2-4.9-4.7-15.2-1.7-18.1-.5-.4.2-.6.6-.5 1 1.7 6.1-1.1 18.6-5.6 34.3-2.4 8.4-5 17.8-7.3 28.1-2.2-2.4-5-4.2-7.8-4.6-7.2-1.2-15.2 1.2-23 6.9-15.2 11.1-26.6 32.1-29.9 54.8-2.2 15.6 1.3 32.4 14.1 34.6 11 1.9 22.3-6.4 32.9-23.8 2.1-3.5 4.2-7.3 6.2-11.4-2.1 24 10.4 42.2 23 44.3 8.2 1.4 14.5-2.7 15.8-5.7.3-.5-.1-1.3-.7-1.5zm-34-79.5c-5.9 17.2-14 32.7-20.6 44.7-4.9 8.9-12.5 15.5-14.3 15.1-.3-.1-1.4-.3-1.9-2.4-2.3-10.3 11.8-46.5 26.8-57.9 3.2-2.5 5.8-3.2 7.6-3.2.7 0 1.2.1 1.7.2.4.1.8.3 1.2.5-.2 1-.4 2-.5 3zm257.7 26.2c-8.8-3-17.1-5.9-17.1-12s3.5-10.2 6.4-12.5c6.2-5 14.9-6.5 19.9-5.4.4.1.9-.1 1.1-.5 2.5-4.6 2.7-9.1.5-12.4-2.1-3-7.1-6.3-19.3-4.8-12.4 1.5-32.1 12.6-32.1 35.8 0 15.1 16.2 21.7 29.2 27 3.1 1.3 6.2 2.5 8.8 3.8-22.9 8.2-46.8 20-47.5 33.9-.2 3.6 1.1 6.6 4.3 8.6.2.1.3.1.5.1s.5-.1.6-.2c6.5-6.7 24.7-14.5 36.6-19.3 16.7-6.7 29.9-12 29.9-24.3-.1-10.4-11.7-14.3-21.8-17.8zm-19.9-83.3c-1.7-1.7-5.6-2.7-9.7-2.5-4.1.2-7.5 1.5-9 3.5-.2.2-.2.5 0 .7 3.9 6.2 1.9 25.1-2.4 31.9-.1.2-.1.5 0 .7.1.2.3.3.6.3 9.4-.2 19-9.6 22.5-18.3 2.6-6.6 1.9-12.4-2-16.3zm-53.1 33.9c-.3.1-.5.3-.5.6-1.4 25-16 69.8-28 69.8-3.2 0-5.7-2.7-5.9-9.1-.4-8.1 1.5-17.2 3.4-26 2.7-13.1 5.1-24.4-.5-29.9-3.5-3.5-9.9-4.2-19.5-2.1-.2 0-.3.1-.4.3s-.1.3-.1.5c1.8 7.1 0 16.1-2.1 26.5-2.1 10.8-3.6 23-3 36.7.6 13.1 10.8 20.5 20.3 20.1 5.5-.2 13.3-2.5 20.8-11.3-5.1 22.1-19.3 49.4-45 62.9-21.7 11.4-47.4 10.9-76.4-1.4-.3-.1-.6 0-.8.2-.2.2-.2.6 0 .8 17.9 23.6 47.7 24.7 53.4 24.7 58.3 0 93.4-50.2 104.3-149.1.5-4.8-.7-8.7-3.5-11.3-3.3-3.3-9.2-4.3-16.5-2.9zm-74.8 96.7c6.5-.5 12.1-4.5 12.7-7.6 0-.2 0-.5-.2-.7-.1-.2-.4-.3-.6-.3-2.6-.2-4.9-1.5-6.7-3.8-6.9-8.5-7.2-29.7-5.1-46.7.3-2.4.5-4.7.7-6.9 2.1-17.7 1.3-25.5-2.5-29.2-3.3-3.2-8.5-3.1-17.1-1.7-.4.1-.8.5-.7.9.2 3.3 0 6.6-.6 10.1-1.4-2.1-3.6-3.4-6.3-3.8-6.7-.9-13.9 1.5-21 7-13.6 10.6-23.6 30.2-25.9 51.1-1.6 14.4 2.1 29.7 13.9 31.4 10.1 1.4 20.4-6.5 29.6-22.7 2-3.5 3.9-7.4 5.8-11.5 3 28.2 14.2 33.9 21.3 34.5.9 0 1.8 0 2.7-.1zm-41-30.4c-5.1 9.9-7.9 10.5-8.9 10.1-8-2.9 1.8-27.7 7.2-36.6 5.4-9 13.8-16.5 19.8-17.7-1.5 4.6-3.4 9.7-5.5 15.4l-.9 2.4v.3c-3.9 9.1-7.9 18.8-11.7 26.1z"/></svg>