<svg xmlns="http://www.w3.org/2000/svg" viewBox="0 0 562.52 80.38" aria-labelledby="ready-logo-title"><title>Ready Agency Logo</title><path d="M173.15.47h31.4c10.15 0 17.17 2.66 21.63 7.21 3.89 3.8 5.89 8.92 5.89 15.47v.19c0 10.15-5.41 16.89-13.67 20.4l15.85 23.15H213l-13.38-20.12h-8.07v20.12h-18.4zm30.55 31.88c6.26 0 9.87-3 9.87-7.87v-.19c0-5.22-3.8-7.88-10-7.88h-12v15.94zm51-31.88h53.41v15.66h-35.2v10.06h31.88V40.7h-31.93v10.53h35.68v15.66h-53.89zM354.17 0h17.74l28.28 66.89h-19.74L375.61 55H350l-4.75 11.86H325.9zm16.13 40.7l-7.4-18.88-7.5 18.88zM419.92.47h25.62C469.26.47 483 14.14 483 33.3v.19c0 19.17-13.94 33.4-37.85 33.4h-25.23zm25.9 50.1c11 0 18.31-6.07 18.31-16.79v-.19c0-10.63-7.3-16.8-18.31-16.8h-7.49v33.78zm73-8.54L493.55.47h21l13.67 24.2L541.93.47h20.59l-25.24 41.28v25.14h-18.5zm-366 24.86H0v13.49h152.75z"></path></svg>