<svg xmlns="http://www.w3.org/2000/svg" viewBox="0 0 512.1 512" class="svg-icon svg-icon--phone"><path d="M498.64 395L395 325.9a30.25 30.25 0 0 0-40.51 6.58l-30.2 38.82a12.9 12.9 0 0 1-16.54 3.48l-5.75-3.17c-19-10.37-42.72-23.29-90.45-71s-60.67-71.45-71.05-90.45l-3.15-5.74a12.93 12.93 0 0 1 3.42-16.61l38.79-30.18a30.27 30.27 0 0 0 6.59-40.51L117 13.44a30.1 30.1 0 0 0-40.54-9.13l-43.34 26A61.14 61.14 0 0 0 5.24 66.52c-15.61 56.87-3.86 155 140.71 299.6C261 481.11 346.57 512 405.41 512a151.27 151.27 0 0 0 40.11-5.24 61.08 61.08 0 0 0 36.18-27.88l26.06-43.31a30.11 30.11 0 0 0-9.12-40.57zm-5.58 31.83l-26 43.34a44.13 44.13 0 0 1-26 20.17c-52.5 14.42-144.21 2.48-283-136.32S7.29 123.54 21.7 71a44.18 44.18 0 0 1 20.2-26l43.34-26a13.07 13.07 0 0 1 17.61 4l37.54 56.3 31.52 47.27a13.14 13.14 0 0 1-2.85 17.58l-38.8 30.18a29.86 29.86 0 0 0-7.91 38.33l3.08 5.6c10.9 20 24.46 44.89 74 94.38s74.38 63.05 94.37 74l5.61 3.09a29.86 29.86 0 0 0 38.33-7.91L367.88 343a13.14 13.14 0 0 1 17.58-2.85l103.64 69.1a13 13 0 0 1 3.96 17.6z"/></svg>