<svg viewBox="0 0 11.63 11.63" xmlns="http://www.w3.org/2000/svg" class="svg-icon svg-icon--pinterest"><path d="m10.84 8.72a5.82 5.82 0 0 1 -2.12 2.12 5.62 5.62 0 0 1 -2.88.79 5.81 5.81 0 0 1 -1.71-.26 5.76 5.76 0 0 0 .71-1.53l.37-1.38a1 1 0 0 0 .52.47 1.8 1.8 0 0 0 .82.19 2.6 2.6 0 0 0 1.5-.48 3.25 3.25 0 0 0 1.08-1.3 4.14 4.14 0 0 0 .39-1.8 3.27 3.27 0 0 0 -.47-1.7 3.17 3.17 0 0 0 -1.29-1.25 3.88 3.88 0 0 0 -1.83-.43 4.32 4.32 0 0 0 -2.09.49 3.4 3.4 0 0 0 -1.3 1.28 3.53 3.53 0 0 0 -.45 1.74 2.91 2.91 0 0 0 .34 1.33 1.82 1.82 0 0 0 .85.9c.11 0 .17 0 .19-.07l.16-.65a.17.17 0 0 0 0-.17 1.72 1.72 0 0 1 -.31-.6 2.28 2.28 0 0 1 -.12-.71 2.54 2.54 0 0 1 .32-1.23 2.37 2.37 0 0 1 .9-.93 2.63 2.63 0 0 1 1.42-.38 2.42 2.42 0 0 1 1.71.68 2.3 2.3 0 0 1 .68 1.7 3.27 3.27 0 0 1 -.53 1.92 1.56 1.56 0 0 1 -1.3.75.85.85 0 0 1 -.87-1.05 5.26 5.26 0 0 1 .21-.75 5.56 5.56 0 0 0 .26-1.21.83.83 0 0 0 -.16-.57.66.66 0 0 0 -.54-.22.91.91 0 0 0 -.75.4 1.62 1.62 0 0 0 -.3 1 2 2 0 0 0 .16.87l-.65 2.88a5.2 5.2 0 0 0 0 1.67 5.64 5.64 0 0 1 -2.68-2.11 5.7 5.7 0 0 1 -1.08-3.28 5.51 5.51 0 0 1 .84-2.93 5.71 5.71 0 0 1 2.07-2.07 5.44 5.44 0 0 1 5.81 0 5.92 5.92 0 0 1 2.12 2.07 5.75 5.75 0 0 1 0 5.81z"/></svg>